<svg width="640" height="360" viewBox="0 0 640 360" fill="none" xmlns="http://www.w3.org/2000/svg">
  <defs>
    <linearGradient id="bg" x1="0" y1="0" x2="640" y2="360" gradientUnits="userSpaceOnUse">
      <stop offset="0" stop-color="#F8FAFC"/>
      <stop offset="1" stop-color="#EEF2FF"/>
    </linearGradient>
    <linearGradient id="card" x1="0" y1="0" x2="1" y2="1">
      <stop offset="0" stop-color="#FFFFFF"/>
      <stop offset="1" stop-color="#F1F5F9"/>
    </linearGradient>
  </defs>
  <rect width="640" height="360" rx="28" fill="url(#bg)"/>
  <rect x="44" y="52" width="552" height="256" rx="20" fill="url(#card)" stroke="#E2E8F0"/>
  <rect x="80" y="88" width="190" height="18" rx="9" fill="#CBD5F5"/>
  <rect x="80" y="120" width="260" height="10" rx="5" fill="#E2E8F0"/>
  <rect x="80" y="142" width="230" height="10" rx="5" fill="#E2E8F0"/>
  <rect x="80" y="188" width="480" height="96" rx="12" fill="#F8FAFC" stroke="#E2E8F0"/>
  <rect x="104" y="210" width="120" height="10" rx="5" fill="#E2E8F0"/>
  <rect x="104" y="230" width="200" height="10" rx="5" fill="#E2E8F0"/>
  <rect x="104" y="250" width="150" height="10" rx="5" fill="#E2E8F0"/>
  <circle cx="510" cy="110" r="26" fill="#E0F2FE"/>
  <path d="M502 110l6 6 12-14" stroke="#0284C7" stroke-width="4" stroke-linecap="round" stroke-linejoin="round"/>
</svg>
