<svg width="640" height="360" viewBox="0 0 640 360" fill="none" xmlns="http://www.w3.org/2000/svg">
  <defs>
    <linearGradient id="deskBg" x1="0" y1="0" x2="640" y2="360" gradientUnits="userSpaceOnUse">
      <stop offset="0" stop-color="#F8FAFC"/>
      <stop offset="1" stop-color="#ECFDF5"/>
    </linearGradient>
  </defs>
  <rect width="640" height="360" rx="28" fill="url(#deskBg)"/>
  <rect x="52" y="52" width="536" height="256" rx="20" fill="#FFFFFF" stroke="#D1FAE5"/>
  <rect x="86" y="86" width="236" height="16" rx="8" fill="#D1FAE5"/>
  <rect x="86" y="112" width="180" height="10" rx="5" fill="#E2E8F0"/>
  <rect x="86" y="146" width="468" height="136" rx="14" fill="#F8FAFC" stroke="#E2E8F0"/>
  <rect x="112" y="172" width="158" height="10" rx="5" fill="#CBD5E1"/>
  <rect x="112" y="192" width="206" height="10" rx="5" fill="#CBD5E1"/>
  <rect x="112" y="212" width="140" height="10" rx="5" fill="#CBD5E1"/>
  <rect x="358" y="170" width="170" height="84" rx="12" fill="#DCFCE7" stroke="#86EFAC"/>
  <circle cx="494" cy="102" r="24" fill="#CCFBF1"/>
  <path d="M490 88l-8 18h10l-6 14 16-20h-9l7-12z" fill="#059669"/>
  <circle cx="418" cy="212" r="20" fill="#10B981"/>
  <path d="M418 200v12l8 6" stroke="#FFFFFF" stroke-width="3" stroke-linecap="round" stroke-linejoin="round"/>
  <path d="M380 256l24-16 16 8 22-14 16 10 24-14" stroke="#10B981" stroke-width="3" stroke-linecap="round" stroke-linejoin="round"/>
</svg>
