<svg width="640" height="360" viewBox="0 0 640 360" fill="none" xmlns="http://www.w3.org/2000/svg">
  <defs>
    <linearGradient id="bg3" x1="0" y1="0" x2="640" y2="360" gradientUnits="userSpaceOnUse">
      <stop offset="0" stop-color="#F8FAFC"/>
      <stop offset="1" stop-color="#ECFDF3"/>
    </linearGradient>
  </defs>
  <rect width="640" height="360" rx="28" fill="url(#bg3)"/>
  <rect x="50" y="58" width="540" height="244" rx="20" fill="#FFFFFF" stroke="#E2E8F0"/>
  <rect x="90" y="94" width="220" height="14" rx="7" fill="#E2E8F0"/>
  <rect x="90" y="118" width="140" height="10" rx="5" fill="#E2E8F0"/>
  <rect x="90" y="162" width="220" height="100" rx="10" fill="#F1F5F9" stroke="#E2E8F0"/>
  <rect x="120" y="186" width="160" height="10" rx="5" fill="#CBD5E1"/>
  <rect x="120" y="206" width="120" height="10" rx="5" fill="#CBD5E1"/>
  <rect x="120" y="226" width="140" height="10" rx="5" fill="#CBD5E1"/>
  <rect x="350" y="162" width="200" height="100" rx="10" fill="#ECFEFF" stroke="#E2E8F0"/>
  <path d="M372 232l28-22 24 12 30-20" stroke="#0EA5E9" stroke-width="3" stroke-linecap="round" stroke-linejoin="round"/>
  <circle cx="520" cy="112" r="22" fill="#DBEAFE"/>
  <path d="M510 112h20" stroke="#2563EB" stroke-width="4" stroke-linecap="round"/>
  <path d="M520 102v20" stroke="#2563EB" stroke-width="4" stroke-linecap="round"/>
</svg>
