<svg xmlns="http://www.w3.org/2000/svg" width="900" height="700" viewBox="0 0 900 700" fill="none">
  <defs>
    <linearGradient id="bg" x1="0" y1="0" x2="1" y2="1">
      <stop offset="0%" stop-color="#fef3c7"/>
      <stop offset="55%" stop-color="#e2e8f0"/>
      <stop offset="100%" stop-color="#dbeafe"/>
    </linearGradient>
    <linearGradient id="panel" x1="0" y1="0" x2="0" y2="1">
      <stop offset="0%" stop-color="#ffffff"/>
      <stop offset="100%" stop-color="#f8fafc"/>
    </linearGradient>
  </defs>

  <rect x="70" y="60" width="760" height="560" rx="32" fill="url(#bg)" stroke="#e2e8f0"/>

  <rect x="120" y="120" width="320" height="420" rx="20" fill="url(#panel)" stroke="#e2e8f0"/>
  <rect x="160" y="170" width="240" height="18" rx="9" fill="#0f172a"/>
  <rect x="160" y="210" width="160" height="12" rx="6" fill="#cbd5f5"/>
  <rect x="160" y="240" width="200" height="12" rx="6" fill="#e2e8f0"/>

  <rect x="160" y="290" width="220" height="160" rx="14" fill="#f8fafc" stroke="#e2e8f0"/>
  <rect x="180" y="320" width="120" height="10" rx="5" fill="#94a3b8"/>
  <rect x="180" y="350" width="160" height="10" rx="5" fill="#cbd5f5"/>
  <rect x="180" y="380" width="130" height="10" rx="5" fill="#cbd5f5"/>

  <rect x="480" y="150" width="300" height="230" rx="20" fill="url(#panel)" stroke="#e2e8f0"/>
  <rect x="520" y="190" width="220" height="14" rx="7" fill="#0f172a"/>
  <rect x="520" y="220" width="160" height="10" rx="5" fill="#cbd5f5"/>
  <path d="M520 300 L580 260 L640 280 L700 230" stroke="#0f172a" stroke-width="6" stroke-linecap="round" stroke-linejoin="round"/>
  <circle cx="580" cy="260" r="6" fill="#0f172a"/>
  <circle cx="640" cy="280" r="6" fill="#0f172a"/>
  <circle cx="700" cy="230" r="6" fill="#0f172a"/>

  <rect x="480" y="410" width="300" height="140" rx="18" fill="#ffffff" stroke="#e2e8f0"/>
  <rect x="520" y="445" width="140" height="12" rx="6" fill="#94a3b8"/>
  <rect x="520" y="470" width="200" height="10" rx="5" fill="#e2e8f0"/>
  <rect x="520" y="495" width="180" height="10" rx="5" fill="#e2e8f0"/>

  <rect x="300" y="520" width="200" height="70" rx="14" fill="#0f172a"/>
  <rect x="330" y="540" width="140" height="12" rx="6" fill="#f8fafc"/>
  <rect x="330" y="560" width="90" height="10" rx="5" fill="#cbd5f5"/>
</svg>
